<svg enable-background="new 0 0 24 24" height="24" viewBox="0 0 24 24" width="24" xmlns="http://www.w3.org/2000/svg"><path d="m0 0h24v24h-24z" fill="none"/><path d="m7 4c0-1.11-.89-2-2-2s-2 .89-2 2 .89 2 2 2 2-.89 2-2zm3.19.5c-.41 0-.76.25-.92.63-.44 1.1-1.51 1.87-2.77 1.87h-3c-.83 0-1.5.67-1.5 1.5v2.5h6v-2.26c1.43-.45 2.58-1.53 3.12-2.91.26-.64-.24-1.33-.93-1.33zm8.81 12.5c1.11 0 2-.89 2-2s-.89-2-2-2-2 .89-2 2 .89 2 2 2zm1.5 1h-3c-1.26 0-2.33-.77-2.77-1.87-.15-.38-.51-.63-.92-.63-.69 0-1.19.69-.94 1.33.55 1.38 1.69 2.46 3.12 2.91v2.26h6v-2.5c.01-.83-.66-1.5-1.49-1.5zm-3.25-6.91s0-.01.01 0c-1.06.27-1.9 1.11-2.17 2.17v-.01c-.11.43-.51.75-.98.75-.55 0-1-.45-1-1 0-.05.02-.14.02-.14.43-1.85 1.89-3.31 3.75-3.73.04 0 .08-.01.12-.01.55 0 1 .45 1 1 0 .46-.32.86-.75.97zm.75-5.03c0 .51-.37.92-.86.99-3.19.39-5.7 2.91-6.09 6.1-.07.48-.49.85-.99.85-.55 0-1-.45-1-1 0-.02 0-.04 0-.06 0-.01 0-.02 0-.03.5-4.12 3.79-7.38 7.92-7.85h.01c.56 0 1.01.45 1.01 1z"/></svg>